<svg width="14" height="14" viewBox="0 0 14 14" fill="none" xmlns="http://www.w3.org/2000/svg">
<path fill-rule="evenodd" clip-rule="evenodd" d="M4.53215 6.85904C4.79415 6.60037 5.21615 6.60371 5.47481 6.86571L6.33348 7.73637V4.33304C6.33348 3.96504 6.63215 3.66637 7.00015 3.66637C7.36815 3.66637 7.66681 3.96504 7.66681 4.33304V7.73637L8.52548 6.86571C8.65615 6.73304 8.82815 6.66637 9.00015 6.66637C9.16948 6.66637 9.33815 6.73037 9.46815 6.85837C9.73015 7.11704 9.73348 7.53904 9.47548 7.80104L7.47615 9.83037C7.21481 10.095 6.78748 10.095 6.52681 9.83037L4.52548 7.80171C4.26748 7.53971 4.27015 7.11771 4.53215 6.85904ZM0.484813 9.94837C0.67748 11.8277 2.17215 13.3224 4.05148 13.515C6.01748 13.717 7.98281 13.717 9.94881 13.515C11.8281 13.3224 13.3228 11.8277 13.5155 9.94837C13.7175 7.98304 13.7175 6.01704 13.5155 4.05171C13.3228 2.17237 11.8281 0.677707 9.94881 0.484374C7.98281 0.283041 6.01748 0.283041 4.05148 0.484374C2.17215 0.677707 0.67748 2.17237 0.484813 4.05171C0.282813 6.01704 0.282813 7.98304 0.484813 9.94837Z" fill="#494A4A"/>
</svg>
