<?xml version="1.0" encoding="UTF-8"?>
<svg width="28" height="28" viewBox="0 0 28 28" fill="none" xmlns="http://www.w3.org/2000/svg">
    <path fill-rule="evenodd" clip-rule="evenodd" d="M27.9858 12.7942C27.6048 2.34222 12.7878 -5.05478 3.72778 4.24522C-4.55722 12.7372 1.86378 27.8182 14.1808 27.9942C15.2248 28.0242 16.2468 27.9362 17.2088 27.7412C17.4008 27.7072 17.5888 27.6852 17.7828 27.6442C18.7538 27.4412 20.1178 26.9502 21.5338 26.0712C22.4668 26.4592 25.7708 27.7952 26.7808 27.6822C27.8448 27.5642 26.4538 22.2542 26.1708 21.2172C27.3548 19.0792 28.1148 16.3192 27.9858 12.7942" fill="#F06400"/>
    <path fill-rule="evenodd" clip-rule="evenodd" d="M13.8949 16.3753C13.8339 16.3753 13.7719 16.3714 13.7099 16.3644C12.8879 16.2634 12.3029 15.5154 12.4039 14.6924L13.3329 7.13135C13.4339 6.30835 14.1779 5.72835 15.0049 5.82435C15.8269 5.92635 16.4119 6.67435 16.3109 7.49635L15.3819 15.0584C15.2889 15.8184 14.6419 16.3753 13.8949 16.3753" fill="white"/>
    <path fill-rule="evenodd" clip-rule="evenodd" d="M13.181 22.1859C13.12 22.1859 13.059 22.1819 12.997 22.1749C12.174 22.0739 11.589 21.3259 11.69 20.5029L11.702 20.4039C11.803 19.5819 12.553 19.0019 13.374 19.0969C14.196 19.1989 14.781 19.9469 14.68 20.7689L14.668 20.8689C14.575 21.6279 13.928 22.1859 13.181 22.1859" fill="white"/>
</svg>
